<svg width="531" height="434" viewBox="0 0 531 434" fill="none" xmlns="http://www.w3.org/2000/svg">
<path d="M233.807 1.30676C221.443 3.19612 202.061 8.19734 189.251 12.9763C176.552 17.6441 154.719 27.9799 78.9729 65.3224C30.8517 88.9948 12.4721 98.6638 9.35312 101.665C1.33292 109.333 -1.78604 118.891 0.998749 126.893C2.66962 131.783 35.7529 186.463 40.9883 193.131C46.6693 200.355 46.3351 200.355 93.1196 198.244C156.724 195.354 160.177 195.243 216.43 194.132C284.045 192.798 372.378 194.465 447.456 198.688C481.097 200.578 480.985 200.578 484.995 197.688C487.223 196.132 494.909 185.018 506.048 167.125C527.992 132.228 531 126.448 531 120.336C531 114.334 526.544 105.332 521.198 100.553C517.41 97.3302 378.95 28.0911 359.234 19.5334C339.852 11.3092 323.143 6.19685 302.09 2.19588C289.392 -0.249176 247.508 -0.804855 233.807 1.30676ZM288.166 98.6638C304.429 100.109 319.69 102.665 324.814 104.776C334.728 108.889 336.844 116.224 330.272 123.67C312.004 144.453 258.759 151.232 222.111 137.451C218.547 136.117 212.531 133.006 208.744 130.449C192.592 119.558 192.926 108.333 209.412 103.554C228.015 98.3304 261.655 96.2188 288.166 98.6638Z" fill="white"/>
<path d="M211.003 238.541C160.454 239.533 106.231 242.291 70.3791 245.71C61.3605 246.592 61.2492 247.144 66.5936 255.967C72.94 266.114 85.5215 277.144 98.2144 283.541C125.27 297.218 164.017 305.71 214.566 309.129C240.397 310.894 315.218 309.791 336.707 307.475C397.499 300.637 434.687 287.622 455.508 265.673C460.741 260.158 468.089 248.026 466.865 246.813C466.642 246.592 460.184 245.82 452.502 245.158C388.258 239.423 293.061 236.776 211.003 238.541Z" fill="white"/>
<path d="M253.204 333.837C245.346 335.84 233.836 342.848 228.302 348.967C205.17 374.443 213.249 414.269 244.461 429.177C271.355 442.081 303.784 428.064 313.413 399.362C316.844 389.461 316.844 375.666 313.523 366.989C307.879 352.304 297.586 341.736 283.419 335.951C276.557 333.281 260.287 332.057 253.204 333.837Z" fill="white"/>
</svg>
